<?xml version="1.0" standalone="no"?>
<!DOCTYPE svg PUBLIC "-//W3C//DTD SVG 20010904//EN"
 "http://www.w3.org/TR/2001/REC-SVG-20010904/DTD/svg10.dtd">
<svg version="1.0" xmlns="http://www.w3.org/2000/svg"
 width="252.000000pt" height="109.000000pt" viewBox="0 0 252.000000 109.000000"
 preserveAspectRatio="xMidYMid meet">

<g transform="translate(0.000000,109.000000) scale(0.100000,-0.100000)"
fill="#000000" stroke="none">
<path d="M1110 990 c-17 -17 -20 -33 -20 -120 l0 -99 34 23 c37 25 45 28 191
82 98 35 186 79 234 116 23 18 19 18 -198 18 -208 0 -222 -1 -241 -20z"/>
<path d="M1576 975 c-46 -41 -185 -109 -314 -155 -128 -45 -156 -65 -163 -118
-5 -37 -4 -40 10 -28 27 23 77 46 218 96 184 67 324 149 368 216 l15 24 -47 0
c-40 -1 -54 -7 -87 -35z"/>
<path d="M1159 665 c-67 -35 -72 -52 -67 -262 3 -153 6 -184 23 -218 28 -56
72 -76 160 -73 l70 3 6 38 6 37 -48 0 c-75 0 -79 9 -79 165 l0 134 63 3 62 3
3 38 3 37 -65 0 -66 0 0 60 c0 69 -3 70 -71 35z"/>
<path d="M333 570 c-69 -10 -112 -36 -137 -85 -16 -32 -20 -58 -20 -140 0 -87
3 -108 24 -150 39 -79 71 -90 255 -90 141 0 153 2 206 26 36 17 71 44 99 78
24 28 46 51 50 51 4 0 24 -28 45 -62 21 -35 45 -69 53 -75 10 -8 46 -13 93
-13 l78 0 -89 125 c-50 69 -90 129 -90 133 0 8 9 20 114 145 l48 57 -67 0
c-72 0 -72 0 -142 -89 l-19 -23 -37 56 -37 56 -81 0 -80 0 75 -108 75 -109
-62 -68 c-79 -88 -116 -104 -232 -105 -114 0 -135 12 -135 76 l0 44 111 0 c61
0 119 5 131 11 40 21 61 115 37 162 -17 32 -51 67 -79 82 -34 17 -123 24 -187
15z m126 -102 c12 -20 13 -34 5 -55 -9 -26 -13 -28 -77 -31 l-67 -3 0 50 c0
60 14 72 80 68 36 -2 47 -7 59 -29z"/>
<path d="M1755 572 c-50 -7 -50 -7 -53 -46 l-3 -39 71 5 c112 8 170 -13 170
-61 0 -13 -17 -16 -96 -18 -112 -3 -178 -26 -194 -68 -6 -15 -10 -55 -10 -89
0 -72 21 -109 74 -131 45 -19 174 -28 272 -20 l86 7 -4 183 c-3 168 -5 186
-24 212 -34 46 -72 62 -159 67 -44 2 -102 1 -130 -2z m185 -307 l0 -75 -37 -1
c-67 -2 -108 3 -120 13 -19 15 -16 103 3 122 11 12 35 16 85 16 l69 0 0 -75z"/>
<path d="M1461 553 c-63 -33 -72 -65 -69 -263 l3 -175 60 0 60 0 3 169 c3 199
6 206 84 206 l49 0 -3 38 -3 37 -75 3 c-56 2 -84 -2 -109 -15z"/>
</g>
</svg>
